HIERARCHY
ROOT Hips
{
  OFFSET -321.463 94.9166 302.073
  CHANNELS 6 Xposition Yposition Zposition Zrotation Xrotation Yrotation
  JOINT ToSpine
  {
    OFFSET -0.0105055 1.38907 -7.13956
    CHANNELS 3 Zrotation Xrotation Yrotation
    JOINT Spine
    {
      OFFSET 0.0105055 10 1
      CHANNELS 3 Zrotation Xrotation Yrotation
      JOINT Spine1
      {
        OFFSET 0 12 1.60637
        CHANNELS 3 Zrotation Xrotation Yrotation
        JOINT Neck
        {
          OFFSET 0 27 2.26658
          CHANNELS 3 Zrotation Xrotation Yrotation
          JOINT Head
          {
            OFFSET 0 9 2.12705
            CHANNELS 3 Zrotation Xrotation Yrotation
            End Site
            {
              OFFSET 0 11 2
            }
          }
        }
        JOINT LeftShoulder
        {
          OFFSET 8 19.6109 2.86452
          CHANNELS 3 Zrotation Xrotation Yrotation
          JOINT LeftArm
          {
            OFFSET 12 1 0.681055
            CHANNELS 3 Zrotation Xrotation Yrotation
            JOINT LeftForeArm
            {
              OFFSET 19 0 -1.52608
              CHANNELS 3 Zrotation Xrotation Yrotation
              JOINT LeftHand
              {
                OFFSET 23 0 0
                CHANNELS 3 Zrotation Xrotation Yrotation
                End Site
                {
                  OFFSET 10 0 0
                }
              }
            }
          }
        }
        JOINT RightShoulder
        {
          OFFSET -8 19.6109 2.86452
          CHANNELS 3 Zrotation Xrotation Yrotation
          JOINT RightArm
          {
            OFFSET -12 1 0.681055
            CHANNELS 3 Zrotation Xrotation Yrotation
            JOINT RightForeArm
            {
              OFFSET -19 0 -1.52608
              CHANNELS 3 Zrotation Xrotation Yrotation
              JOINT RightHand
              {
                OFFSET -23 0 0
                CHANNELS 3 Zrotation Xrotation Yrotation
                End Site
                {
                  OFFSET -10 0 0
                }
              }
            }
          }
        }
      }
    }
  }
  JOINT LeftUpLeg
  {
    OFFSET 9 -7.17245 0
    CHANNELS 3 Zrotation Xrotation Yrotation
    JOINT LeftLeg
    {
      OFFSET 0 -44.1113 0
      CHANNELS 3 Zrotation Xrotation Yrotation
      JOINT LeftFoot
      {
        OFFSET 0 -36.1829 0
        CHANNELS 3 Zrotation Xrotation Yrotation
        JOINT LeftToeBase
        {
          OFFSET 0 -4.84184 13
          CHANNELS 3 Zrotation Xrotation Yrotation
          End Site
          {
            OFFSET 0 1 6
          }
        }
      }
    }
  }
  JOINT RightUpLeg
  {
    OFFSET -9 -7.17245 0
    CHANNELS 3 Zrotation Xrotation Yrotation
    JOINT RightLeg
    {
      OFFSET 0 -44.0551 0
      CHANNELS 3 Zrotation Xrotation Yrotation
      JOINT RightFoot
      {
        OFFSET 0 -36.1469 0
        CHANNELS 3 Zrotation Xrotation Yrotation
        JOINT RightToeBase
        {
          OFFSET 0 -4.92256 13
          CHANNELS 3 Zrotation Xrotation Yrotation
          End Site
          {
            OFFSET 0 1 6
          }
        }
      }
    }
  }
}
MOTION
Frames:	13
Frame Time:	0.0333333
-122.964 96.615 90.2276 -4.92142 -6.31865 -37.8399 0 0 0 -0.18565 6.77295 -1.2208 -0.126585 0.752919 -1.74689 6.97684 21.5004 0.136289 -1.95026 2.17595 3.96075 -29.2159 3.21127 -5.5799 -33.5979 -6.47199 -16.2099 -2.97612 -15.6076 -15.1137 -5.93097 0.237741 -4.60663 22.4852 4.63774 12.4981 53.8953 3.06895 -12.6383 3.37441 -10.5096 7.47395 1.92698 0.063089 3.76412 7.11844 -1.47206 8.75321 0.0108934 60.389 -11.9503 6.34316 -12.3302 0.686719 0.543824 -0.467036 -2.19405 -0.123703 -3.1679 -6.85656 0.0486817 25.3638 7.515 -16.9077 -7.5181 -1.11637 4.40486 -16.7119 -4.19986 
-121.5 96.5139 88.8869 -5.11861 -6.23181 -38.7501 0 0 0 -1.48192 4.99636 -1.69107 1.70466 1.55116 -2.73321 6.58692 21.8033 0.986743 -3.07181 2.7637 4.95117 -29.0949 3.22158 -5.63969 -35.7138 -10.8698 -17.4833 -2.26747 -13.5978 -15.2137 -6.13663 0.29151 -5.42745 22.4608 4.50586 12.0605 53.9985 2.18943 -13.7636 3.35034 -11.6984 6.36196 2.15975 0.0632297 3.34837 7.6407 4.57915 9.15213 0.0303866 58.5508 -15.7843 4.61817 -9.59543 0.392534 0.571008 0.434267 -2.46149 -0.11439 -4.81834 -5.96895 0.0112867 25.725 7.90557 -17.0239 -5.93558 -0.890023 4.52753 -17.239 -4.33284 
-119.933 96.2514 87.4435 -5.46902 -5.93084 -39.3615 0 0 0 -2.94416 3.81465 -2.51796 4.00717 1.82461 -4.1189 6.06664 21.783 2.19574 -4.29842 3.73933 6.27288 -28.9619 3.20532 -5.62681 -37.5114 -13.5015 -18.0146 -2.40329 -13.7285 -15.7521 -6.75841 0.339671 -5.75312 22.372 4.38191 11.6815 53.6846 1.44585 -14.5892 2.92667 -10.1576 6.00792 2.22024 0.0629063 3.24727 8.20533 9.93813 9.16933 0.0068129 55.0584 -20.5515 3.5352 -5.15231 0.155288 0.75279 -1.55518 -2.88914 0.320331 -6.81133 -4.64534 -0.000396101 26.5064 7.35625 -16.2743 -5.04533 -0.722045 4.44339 -16.8998 -4.45828 
-118.042 95.8779 85.854 -5.52676 -5.5392 -39.0456 0 0 0 -4.67304 2.60148 -3.68078 6.61451 2.61757 -5.8211 5.41525 20.8925 3.32232 -5.1152 4.75946 7.30581 -28.7832 3.08414 -5.32725 -38.6696 -14.1259 -19.1836 -1.93663 -12.8786 -15.2106 -7.00416 0.363795 -5.92765 22.2722 4.12143 10.8302 53.489 0.768257 -14.6913 2.90297 -10.7534 6.72255 2.40632 0.0686045 3.27153 8.21927 13.8625 8.10821 -0.0118463 50.7165 -24.0832 2.89569 -4.54512 0.112709 0.675934 -1.96076 -2.45463 0.301269 -9.26757 -4.68947 -0.000235904 27.3394 7.42784 -16.5366 -3.20164 -0.46016 4.6126 -17.6765 -4.86072 
-115.836 95.5199 83.9892 -5.34932 -5.27077 -38.0082 0 0 0 -6.48379 2.5176 -4.76561 9.08216 2.31796 -7.31769 4.80538 20.2583 4.09792 -5.5075 5.51122 7.90626 -28.4564 3.14113 -5.57294 -39.8806 -13.5477 -20.5771 -0.403462 -9.7393 -12.8517 -7.88658 0.420664 -6.09336 21.9438 3.84514 10.0288 54.0158 -0.222268 -14.9962 2.82574 -10.7814 8.43376 2.25577 0.0744152 3.77275 7.82849 16.3815 6.43879 0.00212102 45.243 -25.9761 1.82944 -4.82619 0.0741864 0.425093 -0.665007 -1.67751 -0.0840295 -11.628 -5.0195 -0.00162808 27.2735 6.97997 -16.7448 -0.448517 -0.0694878 4.88044 -18.793 -4.72802 
-113.294 95.2576 81.7659 -4.94582 -4.86748 -36.7799 0 0 0 -7.62932 3.13373 -5.53644 10.3228 1.4756 -8.19848 5.51588 19.5071 3.95611 -6.36621 5.87791 8.29366 -27.2335 3.10116 -5.77579 -41.0172 -10.7983 -22.4649 0.356293 -8.03095 -9.8956 -7.72028 0.372218 -5.51034 22.7841 3.82004 9.57467 54.1488 -1.68069 -15.37 2.75714 -10.9939 10.5914 2.33958 0.0844322 4.13553 7.41289 17.2333 5.29235 -0.015525 39.4892 -27.3592 2.97227 -4.11076 0.105192 0.798359 -2.94885 -2.61312 -0.567196 -14.26 -4.28835 0.00542795 26.6564 5.68034 -14.5732 1.24781 0.158991 4.50554 -17.2571 -5.21105 
-110.505 94.9152 79.259 -4.76434 -4.57457 -35.1577 0 0 0 -8.46302 4.27885 -5.98125 11.4405 0.764333 -8.73455 6.49951 18.3956 3.2502 -6.69614 5.71794 8.03668 -26.154 3.11757 -6.12607 -41.4157 -7.43759 -24.7974 0.665084 -6.21156 -6.12396 -8.43319 0.416625 -5.64702 23.5122 3.83214 9.31282 54.8462 -2.91975 -15.3743 2.99744 -12.0267 12.5097 2.44094 0.091277 4.28958 7.42811 17.0833 3.57431 0.0148149 36.1888 -28.824 3.73923 -7.53925 0.261725 1.67251 -13.2578 -6.33783 -0.985102 -16.1139 -3.8844 0.0524646 24.2597 4.72632 -14.8161 5.69524 0.752703 4.78973 -18.6878 -6.12927 
-107.328 94.3464 76.4212 -4.82179 -4.12426 -33.6163 0 0 0 -8.20883 5.88361 -6.1976 11.6483 0.102686 -8.78307 8.22686 17.072 2.32142 -7.37615 5.51132 7.94406 -24.8229 3.16027 -6.65595 -41.0757 -3.25861 -26.7505 0.236221 -5.73427 -2.79705 -8.12369 0.380938 -5.3589 24.9763 4.1045 9.60794 55.0338 -2.96143 -15.0487 3.28233 -12.3818 14.0312 2.97657 0.115982 4.45606 7.99938 16.7185 3.51759 -0.00794871 32.8714 -31.461 5.19702 -12.3847 0.522883 1.87353 -19.318 -8.24896 -1.23325 -17.9903 -3.23725 0.0551204 21.1332 3.56503 -15.546 10.4024 1.41303 5.14389 -20.1712 -5.7668 
-104.084 94.011 73.4705 -4.73001 -3.36702 -32.3882 0 0 0 -7.79086 7.44032 -5.79686 11.8726 -0.696153 -8.30238 9.48037 15.028 1.25602 -7.18766 5.22783 7.17825 -24.1456 3.25788 -7.18962 -39.8 1.13564 -28.8992 -0.668898 -8.84857 0.979351 -7.96444 0.346396 -4.97365 25.6995 4.33567 10.0431 55.302 -3.11371 -14.2711 3.24515 -11.9853 14.934 3.38212 0.157644 5.32678 8.44672 15.4893 3.8069 0.0059124 30.5768 -32.6437 2.71592 -20.8109 0.524538 2.23459 -13.1834 -10.5782 -1.70337 -19.6175 -3.28335 -0.299478 17.1366 2.2029 -12.9637 11.4646 1.31235 4.71857 -18.3601 -6.21223 
-100.914 93.9234 70.5915 -3.82772 -3.4247 -31.3121 0 0 0 -8.28663 9.02648 -4.80301 11.3359 -1.44229 -7.21732 10.6778 12.387 0.0326376 -6.87572 5.09195 6.11804 -24.4909 3.46037 -7.72623 -38.9102 3.15886 -31.4548 -1.23985 -10.8515 4.76514 -8.05369 0.355633 -5.04974 26.4865 4.40915 9.95453 54.899 -2.30508 -12.404 3.3928 -12.2803 14.4987 3.76791 0.188242 5.72966 7.65821 13.0476 5.26927 0.0081785 30.5949 -34.2003 3.94251 -26.2381 0.915634 2.64734 -5.34976 -11.909 -3.6272 -19.8705 -4.95004 -0.824702 12.4294 -0.303257 -9.89581 8.83204 0.793139 4.20827 -16.0031 -5.55661 
-98.1429 94.0122 68.0247 -2.43088 -4.16483 -31.4634 0 0 0 -9.34563 10.4927 -3.23079 9.4512 -2.34447 -5.32762 12.632 10.8366 -1.52419 -7.1059 3.89857 5.18304 -25.7296 3.73947 -8.1834 -37.5024 4.62185 -32.2861 -2.24816 -12.463 4.716 -7.87824 0.332514 -4.818 27.3197 4.5042 9.90975 53.9768 0.448067 -9.29319 3.9667 -14.0784 11.8224 2.86793 0.139618 5.54923 5.99952 9.36598 7.29613 -0.0106973 33.1869 -35.5533 3.81487 -27.2986 0.926003 3.77838 -1.99034 -16.4053 -5.66049 -18.8783 -6.39357 -0.980981 7.56032 -3.78912 -9.18512 3.33698 0.176308 4.27763 -16.3532 -5.96308 
-95.7108 94.0746 65.7701 -1.42864 -4.7107 -32.8106 0 0 0 -9.71241 11.724 -1.87737 6.50527 -3.44171 -3.34199 14.5606 9.99336 -2.67917 -6.17186 3.08739 4.40373 -25.8927 3.76183 -8.19369 -37.5007 6.10034 -29.9763 -2.5115 -15.0852 4.74627 -7.66697 0.2655 -3.96526 27.6229 4.91022 10.9844 53.0198 2.29979 -6.194 3.85417 -14.2379 8.47915 2.1697 0.0946131 5.01567 4.65475 5.59875 9.79764 0.00799475 36.7491 -36.8411 2.86933 -26.8249 0.681734 4.25732 0.158218 -17.7589 -6.37179 -18.3074 -6.75974 -0.317901 5.19871 -10.9283 -16.2099 -5.34092 -0.725762 4.15626 -15.8506 -7.11099 
-93.0752 94.7964 63.7416 -1.0899 -4.38418 -34.4176 0 0 0 -6.95552 12.0748 -1.06651 1.74555 -3.57549 -1.48985 15.7117 9.35074 -3.73051 -5.15146 1.59647 3.39933 -25.4818 3.65496 -8.00532 -37.3863 8.80187 -26.9256 -2.88723 -17.2962 4.86487 -8.19444 0.261963 -3.65722 27.282 5.30047 12.2772 52.5612 3.41751 -4.24892 4.16416 -15.5894 7.73601 1.86022 0.0814651 5.02385 3.78773 2.77123 12.3448 0.0153666 37.2084 -37.1182 3.40125 -23.7364 0.717346 3.89964 -2.08313 -16.9691 -6.20152 -18.1733 -7.49057 0.461052 4.67209 -20.4818 -18.2285 -7.69689 -1.20235 3.99692 -14.9585 -3.35206 
